<?xml version="1.0" encoding="utf-8" standalone="no"?>
<!DOCTYPE svg PUBLIC "-//W3C//DTD SVG 1.1//EN"
  "http://www.w3.org/Graphics/SVG/1.1/DTD/svg11.dtd">
<!-- Created with matplotlib (https://matplotlib.org/) -->
<svg height="345.6pt" version="1.1" viewBox="0 0 460.8 345.6" width="460.8pt" xmlns="http://www.w3.org/2000/svg" xmlns:xlink="http://www.w3.org/1999/xlink">
 <defs>
  <style type="text/css">
*{stroke-linecap:butt;stroke-linejoin:round;}
  </style>
 </defs>
 <g id="figure_1">
  <g id="patch_1">
   <path d="M 0 345.6 
L 460.8 345.6 
L 460.8 0 
L 0 0 
z
" style="fill:#ffffff;"/>
  </g>
  <g id="axes_1">
   <g id="patch_2">
    <path d="M 57.6 307.584 
L 414.72 307.584 
L 414.72 41.472 
L 57.6 41.472 
z
" style="fill:#ffffff;"/>
   </g>
   <g id="matplotlib.axis_1">
    <g id="xtick_1">
     <g id="line2d_1">
      <defs>
       <path d="M 0 0 
L 0 3.5 
" id="mebbbd67ac6" style="stroke:#000000;stroke-width:0.8;"/>
      </defs>
      <g>
       <use style="stroke:#000000;stroke-width:0.8;" x="73.387385" xlink:href="#mebbbd67ac6" y="307.584"/>
      </g>
     </g>
     <g id="text_1">
      <!-- 2012-01 -->
      <defs>
       <path d="M 19.1875 8.296875 
L 53.609375 8.296875 
L 53.609375 0 
L 7.328125 0 
L 7.328125 8.296875 
Q 12.9375 14.109375 22.625 23.890625 
Q 32.328125 33.6875 34.8125 36.53125 
Q 39.546875 41.84375 41.421875 45.53125 
Q 43.3125 49.21875 43.3125 52.78125 
Q 43.3125 58.59375 39.234375 62.25 
Q 35.15625 65.921875 28.609375 65.921875 
Q 23.96875 65.921875 18.8125 64.3125 
Q 13.671875 62.703125 7.8125 59.421875 
L 7.8125 69.390625 
Q 13.765625 71.78125 18.9375 73 
Q 24.125 74.21875 28.421875 74.21875 
Q 39.75 74.21875 46.484375 68.546875 
Q 53.21875 62.890625 53.21875 53.421875 
Q 53.21875 48.921875 51.53125 44.890625 
Q 49.859375 40.875 45.40625 35.40625 
Q 44.1875 33.984375 37.640625 27.21875 
Q 31.109375 20.453125 19.1875 8.296875 
z
" id="DejaVuSans-50"/>
       <path d="M 31.78125 66.40625 
Q 24.171875 66.40625 20.328125 58.90625 
Q 16.5 51.421875 16.5 36.375 
Q 16.5 21.390625 20.328125 13.890625 
Q 24.171875 6.390625 31.78125 6.390625 
Q 39.453125 6.390625 43.28125 13.890625 
Q 47.125 21.390625 47.125 36.375 
Q 47.125 51.421875 43.28125 58.90625 
Q 39.453125 66.40625 31.78125 66.40625 
z
M 31.78125 74.21875 
Q 44.046875 74.21875 50.515625 64.515625 
Q 56.984375 54.828125 56.984375 36.375 
Q 56.984375 17.96875 50.515625 8.265625 
Q 44.046875 -1.421875 31.78125 -1.421875 
Q 19.53125 -1.421875 13.0625 8.265625 
Q 6.59375 17.96875 6.59375 36.375 
Q 6.59375 54.828125 13.0625 64.515625 
Q 19.53125 74.21875 31.78125 74.21875 
z
" id="DejaVuSans-48"/>
       <path d="M 12.40625 8.296875 
L 28.515625 8.296875 
L 28.515625 63.921875 
L 10.984375 60.40625 
L 10.984375 69.390625 
L 28.421875 72.90625 
L 38.28125 72.90625 
L 38.28125 8.296875 
L 54.390625 8.296875 
L 54.390625 0 
L 12.40625 0 
z
" id="DejaVuSans-49"/>
       <path d="M 4.890625 31.390625 
L 31.203125 31.390625 
L 31.203125 23.390625 
L 4.890625 23.390625 
z
" id="DejaVuSans-45"/>
      </defs>
      <g transform="translate(52.495979 322.182437)scale(0.1 -0.1)">
       <use xlink:href="#DejaVuSans-50"/>
       <use x="63.623047" xlink:href="#DejaVuSans-48"/>
       <use x="127.246094" xlink:href="#DejaVuSans-49"/>
       <use x="190.869141" xlink:href="#DejaVuSans-50"/>
       <use x="254.492188" xlink:href="#DejaVuSans-45"/>
       <use x="290.576172" xlink:href="#DejaVuSans-48"/>
       <use x="354.199219" xlink:href="#DejaVuSans-49"/>
      </g>
     </g>
    </g>
    <g id="xtick_2">
     <g id="line2d_2">
      <g>
       <use style="stroke:#000000;stroke-width:0.8;" x="113.913535" xlink:href="#mebbbd67ac6" y="307.584"/>
      </g>
     </g>
     <g id="text_2">
      <!-- 2012-07 -->
      <defs>
       <path d="M 8.203125 72.90625 
L 55.078125 72.90625 
L 55.078125 68.703125 
L 28.609375 0 
L 18.3125 0 
L 43.21875 64.59375 
L 8.203125 64.59375 
z
" id="DejaVuSans-55"/>
      </defs>
      <g transform="translate(93.022129 322.182437)scale(0.1 -0.1)">
       <use xlink:href="#DejaVuSans-50"/>
       <use x="63.623047" xlink:href="#DejaVuSans-48"/>
       <use x="127.246094" xlink:href="#DejaVuSans-49"/>
       <use x="190.869141" xlink:href="#DejaVuSans-50"/>
       <use x="254.492188" xlink:href="#DejaVuSans-45"/>
       <use x="290.576172" xlink:href="#DejaVuSans-48"/>
       <use x="354.199219" xlink:href="#DejaVuSans-55"/>
      </g>
     </g>
    </g>
    <g id="xtick_3">
     <g id="line2d_3">
      <g>
       <use style="stroke:#000000;stroke-width:0.8;" x="154.885028" xlink:href="#mebbbd67ac6" y="307.584"/>
      </g>
     </g>
     <g id="text_3">
      <!-- 2013-01 -->
      <defs>
       <path d="M 40.578125 39.3125 
Q 47.65625 37.796875 51.625 33 
Q 55.609375 28.21875 55.609375 21.1875 
Q 55.609375 10.40625 48.1875 4.484375 
Q 40.765625 -1.421875 27.09375 -1.421875 
Q 22.515625 -1.421875 17.65625 -0.515625 
Q 12.796875 0.390625 7.625 2.203125 
L 7.625 11.71875 
Q 11.71875 9.328125 16.59375 8.109375 
Q 21.484375 6.890625 26.8125 6.890625 
Q 36.078125 6.890625 40.9375 10.546875 
Q 45.796875 14.203125 45.796875 21.1875 
Q 45.796875 27.640625 41.28125 31.265625 
Q 36.765625 34.90625 28.71875 34.90625 
L 20.21875 34.90625 
L 20.21875 43.015625 
L 29.109375 43.015625 
Q 36.375 43.015625 40.234375 45.921875 
Q 44.09375 48.828125 44.09375 54.296875 
Q 44.09375 59.90625 40.109375 62.90625 
Q 36.140625 65.921875 28.71875 65.921875 
Q 24.65625 65.921875 20.015625 65.03125 
Q 15.375 64.15625 9.8125 62.3125 
L 9.8125 71.09375 
Q 15.4375 72.65625 20.34375 73.4375 
Q 25.25 74.21875 29.59375 74.21875 
Q 40.828125 74.21875 47.359375 69.109375 
Q 53.90625 64.015625 53.90625 55.328125 
Q 53.90625 49.265625 50.4375 45.09375 
Q 46.96875 40.921875 40.578125 39.3125 
z
" id="DejaVuSans-51"/>
      </defs>
      <g transform="translate(133.993622 322.182437)scale(0.1 -0.1)">
       <use xlink:href="#DejaVuSans-50"/>
       <use x="63.623047" xlink:href="#DejaVuSans-48"/>
       <use x="127.246094" xlink:href="#DejaVuSans-49"/>
       <use x="190.869141" xlink:href="#DejaVuSans-51"/>
       <use x="254.492188" xlink:href="#DejaVuSans-45"/>
       <use x="290.576172" xlink:href="#DejaVuSans-48"/>
       <use x="354.199219" xlink:href="#DejaVuSans-49"/>
      </g>
     </g>
    </g>
    <g id="xtick_4">
     <g id="line2d_4">
      <g>
       <use style="stroke:#000000;stroke-width:0.8;" x="195.188507" xlink:href="#mebbbd67ac6" y="307.584"/>
      </g>
     </g>
     <g id="text_4">
      <!-- 2013-07 -->
      <g transform="translate(174.297101 322.182437)scale(0.1 -0.1)">
       <use xlink:href="#DejaVuSans-50"/>
       <use x="63.623047" xlink:href="#DejaVuSans-48"/>
       <use x="127.246094" xlink:href="#DejaVuSans-49"/>
       <use x="190.869141" xlink:href="#DejaVuSans-51"/>
       <use x="254.492188" xlink:href="#DejaVuSans-45"/>
       <use x="290.576172" xlink:href="#DejaVuSans-48"/>
       <use x="354.199219" xlink:href="#DejaVuSans-55"/>
      </g>
     </g>
    </g>
    <g id="xtick_5">
     <g id="line2d_5">
      <g>
       <use style="stroke:#000000;stroke-width:0.8;" x="236.16" xlink:href="#mebbbd67ac6" y="307.584"/>
      </g>
     </g>
     <g id="text_5">
      <!-- 2014-01 -->
      <defs>
       <path d="M 37.796875 64.3125 
L 12.890625 25.390625 
L 37.796875 25.390625 
z
M 35.203125 72.90625 
L 47.609375 72.90625 
L 47.609375 25.390625 
L 58.015625 25.390625 
L 58.015625 17.1875 
L 47.609375 17.1875 
L 47.609375 0 
L 37.796875 0 
L 37.796875 17.1875 
L 4.890625 17.1875 
L 4.890625 26.703125 
z
" id="DejaVuSans-52"/>
      </defs>
      <g transform="translate(215.268594 322.182437)scale(0.1 -0.1)">
       <use xlink:href="#DejaVuSans-50"/>
       <use x="63.623047" xlink:href="#DejaVuSans-48"/>
       <use x="127.246094" xlink:href="#DejaVuSans-49"/>
       <use x="190.869141" xlink:href="#DejaVuSans-52"/>
       <use x="254.492188" xlink:href="#DejaVuSans-45"/>
       <use x="290.576172" xlink:href="#DejaVuSans-48"/>
       <use x="354.199219" xlink:href="#DejaVuSans-49"/>
      </g>
     </g>
    </g>
    <g id="xtick_6">
     <g id="line2d_6">
      <g>
       <use style="stroke:#000000;stroke-width:0.8;" x="276.463479" xlink:href="#mebbbd67ac6" y="307.584"/>
      </g>
     </g>
     <g id="text_6">
      <!-- 2014-07 -->
      <g transform="translate(255.572073 322.182437)scale(0.1 -0.1)">
       <use xlink:href="#DejaVuSans-50"/>
       <use x="63.623047" xlink:href="#DejaVuSans-48"/>
       <use x="127.246094" xlink:href="#DejaVuSans-49"/>
       <use x="190.869141" xlink:href="#DejaVuSans-52"/>
       <use x="254.492188" xlink:href="#DejaVuSans-45"/>
       <use x="290.576172" xlink:href="#DejaVuSans-48"/>
       <use x="354.199219" xlink:href="#DejaVuSans-55"/>
      </g>
     </g>
    </g>
    <g id="xtick_7">
     <g id="line2d_7">
      <g>
       <use style="stroke:#000000;stroke-width:0.8;" x="317.434972" xlink:href="#mebbbd67ac6" y="307.584"/>
      </g>
     </g>
     <g id="text_7">
      <!-- 2015-01 -->
      <defs>
       <path d="M 10.796875 72.90625 
L 49.515625 72.90625 
L 49.515625 64.59375 
L 19.828125 64.59375 
L 19.828125 46.734375 
Q 21.96875 47.46875 24.109375 47.828125 
Q 26.265625 48.1875 28.421875 48.1875 
Q 40.625 48.1875 47.75 41.5 
Q 54.890625 34.8125 54.890625 23.390625 
Q 54.890625 11.625 47.5625 5.09375 
Q 40.234375 -1.421875 26.90625 -1.421875 
Q 22.3125 -1.421875 17.546875 -0.640625 
Q 12.796875 0.140625 7.71875 1.703125 
L 7.71875 11.625 
Q 12.109375 9.234375 16.796875 8.0625 
Q 21.484375 6.890625 26.703125 6.890625 
Q 35.15625 6.890625 40.078125 11.328125 
Q 45.015625 15.765625 45.015625 23.390625 
Q 45.015625 31 40.078125 35.4375 
Q 35.15625 39.890625 26.703125 39.890625 
Q 22.75 39.890625 18.8125 39.015625 
Q 14.890625 38.140625 10.796875 36.28125 
z
" id="DejaVuSans-53"/>
      </defs>
      <g transform="translate(296.543566 322.182437)scale(0.1 -0.1)">
       <use xlink:href="#DejaVuSans-50"/>
       <use x="63.623047" xlink:href="#DejaVuSans-48"/>
       <use x="127.246094" xlink:href="#DejaVuSans-49"/>
       <use x="190.869141" xlink:href="#DejaVuSans-53"/>
       <use x="254.492188" xlink:href="#DejaVuSans-45"/>
       <use x="290.576172" xlink:href="#DejaVuSans-48"/>
       <use x="354.199219" xlink:href="#DejaVuSans-49"/>
      </g>
     </g>
    </g>
    <g id="xtick_8">
     <g id="line2d_8">
      <g>
       <use style="stroke:#000000;stroke-width:0.8;" x="357.738451" xlink:href="#mebbbd67ac6" y="307.584"/>
      </g>
     </g>
     <g id="text_8">
      <!-- 2015-07 -->
      <g transform="translate(336.847045 322.182437)scale(0.1 -0.1)">
       <use xlink:href="#DejaVuSans-50"/>
       <use x="63.623047" xlink:href="#DejaVuSans-48"/>
       <use x="127.246094" xlink:href="#DejaVuSans-49"/>
       <use x="190.869141" xlink:href="#DejaVuSans-53"/>
       <use x="254.492188" xlink:href="#DejaVuSans-45"/>
       <use x="290.576172" xlink:href="#DejaVuSans-48"/>
       <use x="354.199219" xlink:href="#DejaVuSans-55"/>
      </g>
     </g>
    </g>
    <g id="xtick_9">
     <g id="line2d_9">
      <g>
       <use style="stroke:#000000;stroke-width:0.8;" x="398.709944" xlink:href="#mebbbd67ac6" y="307.584"/>
      </g>
     </g>
     <g id="text_9">
      <!-- 2016-01 -->
      <defs>
       <path d="M 33.015625 40.375 
Q 26.375 40.375 22.484375 35.828125 
Q 18.609375 31.296875 18.609375 23.390625 
Q 18.609375 15.53125 22.484375 10.953125 
Q 26.375 6.390625 33.015625 6.390625 
Q 39.65625 6.390625 43.53125 10.953125 
Q 47.40625 15.53125 47.40625 23.390625 
Q 47.40625 31.296875 43.53125 35.828125 
Q 39.65625 40.375 33.015625 40.375 
z
M 52.59375 71.296875 
L 52.59375 62.3125 
Q 48.875 64.0625 45.09375 64.984375 
Q 41.3125 65.921875 37.59375 65.921875 
Q 27.828125 65.921875 22.671875 59.328125 
Q 17.53125 52.734375 16.796875 39.40625 
Q 19.671875 43.65625 24.015625 45.921875 
Q 28.375 48.1875 33.59375 48.1875 
Q 44.578125 48.1875 50.953125 41.515625 
Q 57.328125 34.859375 57.328125 23.390625 
Q 57.328125 12.15625 50.6875 5.359375 
Q 44.046875 -1.421875 33.015625 -1.421875 
Q 20.359375 -1.421875 13.671875 8.265625 
Q 6.984375 17.96875 6.984375 36.375 
Q 6.984375 53.65625 15.1875 63.9375 
Q 23.390625 74.21875 37.203125 74.21875 
Q 40.921875 74.21875 44.703125 73.484375 
Q 48.484375 72.75 52.59375 71.296875 
z
" id="DejaVuSans-54"/>
      </defs>
      <g transform="translate(377.818538 322.182437)scale(0.1 -0.1)">
       <use xlink:href="#DejaVuSans-50"/>
       <use x="63.623047" xlink:href="#DejaVuSans-48"/>
       <use x="127.246094" xlink:href="#DejaVuSans-49"/>
       <use x="190.869141" xlink:href="#DejaVuSans-54"/>
       <use x="254.492188" xlink:href="#DejaVuSans-45"/>
       <use x="290.576172" xlink:href="#DejaVuSans-48"/>
       <use x="354.199219" xlink:href="#DejaVuSans-49"/>
      </g>
     </g>
    </g>
   </g>
   <g id="matplotlib.axis_2">
    <g id="ytick_1">
     <g id="line2d_10">
      <defs>
       <path d="M 0 0 
L -3.5 0 
" id="me65c091028" style="stroke:#000000;stroke-width:0.8;"/>
      </defs>
      <g>
       <use style="stroke:#000000;stroke-width:0.8;" x="57.6" xlink:href="#me65c091028" y="302.631455"/>
      </g>
     </g>
     <g id="text_10">
      <!-- 0 -->
      <g transform="translate(44.2375 306.430674)scale(0.1 -0.1)">
       <use xlink:href="#DejaVuSans-48"/>
      </g>
     </g>
    </g>
    <g id="ytick_2">
     <g id="line2d_11">
      <g>
       <use style="stroke:#000000;stroke-width:0.8;" x="57.6" xlink:href="#me65c091028" y="266.291736"/>
      </g>
     </g>
     <g id="text_11">
      <!-- 10000 -->
      <g transform="translate(18.7875 270.090954)scale(0.1 -0.1)">
       <use xlink:href="#DejaVuSans-49"/>
       <use x="63.623047" xlink:href="#DejaVuSans-48"/>
       <use x="127.246094" xlink:href="#DejaVuSans-48"/>
       <use x="190.869141" xlink:href="#DejaVuSans-48"/>
       <use x="254.492188" xlink:href="#DejaVuSans-48"/>
      </g>
     </g>
    </g>
    <g id="ytick_3">
     <g id="line2d_12">
      <g>
       <use style="stroke:#000000;stroke-width:0.8;" x="57.6" xlink:href="#me65c091028" y="229.952016"/>
      </g>
     </g>
     <g id="text_12">
      <!-- 20000 -->
      <g transform="translate(18.7875 233.751235)scale(0.1 -0.1)">
       <use xlink:href="#DejaVuSans-50"/>
       <use x="63.623047" xlink:href="#DejaVuSans-48"/>
       <use x="127.246094" xlink:href="#DejaVuSans-48"/>
       <use x="190.869141" xlink:href="#DejaVuSans-48"/>
       <use x="254.492188" xlink:href="#DejaVuSans-48"/>
      </g>
     </g>
    </g>
    <g id="ytick_4">
     <g id="line2d_13">
      <g>
       <use style="stroke:#000000;stroke-width:0.8;" x="57.6" xlink:href="#me65c091028" y="193.612296"/>
      </g>
     </g>
     <g id="text_13">
      <!-- 30000 -->
      <g transform="translate(18.7875 197.411515)scale(0.1 -0.1)">
       <use xlink:href="#DejaVuSans-51"/>
       <use x="63.623047" xlink:href="#DejaVuSans-48"/>
       <use x="127.246094" xlink:href="#DejaVuSans-48"/>
       <use x="190.869141" xlink:href="#DejaVuSans-48"/>
       <use x="254.492188" xlink:href="#DejaVuSans-48"/>
      </g>
     </g>
    </g>
    <g id="ytick_5">
     <g id="line2d_14">
      <g>
       <use style="stroke:#000000;stroke-width:0.8;" x="57.6" xlink:href="#me65c091028" y="157.272576"/>
      </g>
     </g>
     <g id="text_14">
      <!-- 40000 -->
      <g transform="translate(18.7875 161.071795)scale(0.1 -0.1)">
       <use xlink:href="#DejaVuSans-52"/>
       <use x="63.623047" xlink:href="#DejaVuSans-48"/>
       <use x="127.246094" xlink:href="#DejaVuSans-48"/>
       <use x="190.869141" xlink:href="#DejaVuSans-48"/>
       <use x="254.492188" xlink:href="#DejaVuSans-48"/>
      </g>
     </g>
    </g>
    <g id="ytick_6">
     <g id="line2d_15">
      <g>
       <use style="stroke:#000000;stroke-width:0.8;" x="57.6" xlink:href="#me65c091028" y="120.932857"/>
      </g>
     </g>
     <g id="text_15">
      <!-- 50000 -->
      <g transform="translate(18.7875 124.732075)scale(0.1 -0.1)">
       <use xlink:href="#DejaVuSans-53"/>
       <use x="63.623047" xlink:href="#DejaVuSans-48"/>
       <use x="127.246094" xlink:href="#DejaVuSans-48"/>
       <use x="190.869141" xlink:href="#DejaVuSans-48"/>
       <use x="254.492188" xlink:href="#DejaVuSans-48"/>
      </g>
     </g>
    </g>
    <g id="ytick_7">
     <g id="line2d_16">
      <g>
       <use style="stroke:#000000;stroke-width:0.8;" x="57.6" xlink:href="#me65c091028" y="84.593137"/>
      </g>
     </g>
     <g id="text_16">
      <!-- 60000 -->
      <g transform="translate(18.7875 88.392356)scale(0.1 -0.1)">
       <use xlink:href="#DejaVuSans-54"/>
       <use x="63.623047" xlink:href="#DejaVuSans-48"/>
       <use x="127.246094" xlink:href="#DejaVuSans-48"/>
       <use x="190.869141" xlink:href="#DejaVuSans-48"/>
       <use x="254.492188" xlink:href="#DejaVuSans-48"/>
      </g>
     </g>
    </g>
    <g id="ytick_8">
     <g id="line2d_17">
      <g>
       <use style="stroke:#000000;stroke-width:0.8;" x="57.6" xlink:href="#me65c091028" y="48.253417"/>
      </g>
     </g>
     <g id="text_17">
      <!-- 70000 -->
      <g transform="translate(18.7875 52.052636)scale(0.1 -0.1)">
       <use xlink:href="#DejaVuSans-55"/>
       <use x="63.623047" xlink:href="#DejaVuSans-48"/>
       <use x="127.246094" xlink:href="#DejaVuSans-48"/>
       <use x="190.869141" xlink:href="#DejaVuSans-48"/>
       <use x="254.492188" xlink:href="#DejaVuSans-48"/>
      </g>
     </g>
    </g>
   </g>
   <g id="line2d_18">
    <path clip-path="url(#pb11ca5cdd1)" d="M 73.832727 295.363511 
L 74.500741 295.282454 
L 75.836768 295.430948 
L 76.059439 295.488 
L 77.395466 295.364461 
L 77.618137 295.227731 
L 81.403547 295.039045 
L 82.07156 294.918221 
L 83.407587 294.961116 
L 83.852929 294.892022 
L 86.079641 294.825562 
L 87.638339 294.666938 
L 88.083681 294.810686 
L 88.529024 294.711124 
L 89.197037 294.694576 
L 89.419708 294.484893 
L 90.087722 294.520631 
L 94.095802 294.445931 
L 94.541145 294.541115 
L 95.431829 294.642623 
L 95.654501 294.797189 
L 96.322514 294.707191 
L 96.990527 294.726629 
L 97.213199 294.541864 
L 97.658541 294.746989 
L 97.881212 294.719809 
L 98.771897 294.728384 
L 99.43991 294.490563 
L 101.889293 294.484733 
L 102.557306 294.37157 
L 105.674703 294.600662 
L 107.01073 294.512688 
L 107.233401 294.708119 
L 108.124085 294.664316 
L 108.346756 294.509218 
L 111.909495 294.331467 
L 112.80018 294.380379 
L 113.468193 294.198901 
L 114.80422 294.241176 
L 115.026891 294.320639 
L 115.694905 294.357087 
L 116.140247 294.509015 
L 116.362918 294.536352 
L 116.585589 294.407867 
L 117.253603 294.461937 
L 117.921616 294.157135 
L 118.144287 294.249173 
L 119.257643 294.302283 
L 119.702985 294.047711 
L 120.59367 294.130954 
L 121.039012 294.174792 
L 121.261684 294.023771 
L 123.933737 293.998787 
L 124.37908 293.891784 
L 125.269764 294.01768 
L 126.828462 294.089903 
L 127.051134 294.047226 
L 127.273805 294.138019 
L 127.496476 294.105389 
L 128.38716 294.093294 
L 129.055174 293.803346 
L 130.16853 293.726605 
L 130.391201 293.592777 
L 131.949899 293.590505 
L 133.063255 293.624465 
L 133.285926 293.699604 
L 133.731268 293.602441 
L 135.95798 293.553029 
L 136.625993 293.817507 
L 136.848664 293.755431 
L 137.96202 293.7301 
L 138.407363 293.904016 
L 139.075376 293.894794 
L 139.298047 294.051457 
L 141.079416 294.144475 
L 141.302088 294.032745 
L 141.524759 294.095337 
L 142.638114 294.101591 
L 142.860786 294.125444 
L 143.083457 294.415563 
L 143.974141 294.355573 
L 144.196813 294.483396 
L 146.868866 294.168169 
L 147.091538 294.240025 
L 147.53688 294.128579 
L 148.650236 294.209338 
L 153.103659 294.024661 
L 154.662357 294.049389 
L 155.33037 293.842784 
L 155.553042 293.773061 
L 156.889068 293.928318 
L 158.670438 293.749588 
L 159.561122 293.681702 
L 159.783793 293.401091 
L 161.565163 293.439052 
L 161.787834 293.331014 
L 163.123861 293.440174 
L 163.346532 293.374512 
L 164.682559 293.392028 
L 164.90523 293.296738 
L 165.795915 293.297785 
L 166.241257 293.485209 
L 166.463928 293.425046 
L 167.354613 293.495691 
L 167.577284 293.379409 
L 167.799955 293.39739 
L 168.022626 293.286878 
L 169.358653 293.068142 
L 169.581324 292.94729 
L 171.808036 292.947159 
L 172.030707 292.992645 
L 172.253378 292.901428 
L 172.476049 293.015087 
L 172.698721 292.973446 
L 173.812076 293.025802 
L 174.034747 292.948325 
L 174.925432 292.97637 
L 175.148103 292.864884 
L 175.816117 292.936015 
L 176.929473 292.655681 
L 177.374815 292.625285 
L 178.042828 292.825728 
L 178.265499 292.594317 
L 178.710842 292.75943 
L 178.933513 292.935071 
L 179.601526 292.933195 
L 179.824198 292.805692 
L 180.26954 292.817757 
L 180.492211 292.823376 
L 182.050909 292.348449 
L 182.718923 292.356422 
L 183.164265 292.210195 
L 184.500292 292.099054 
L 185.168305 292.084452 
L 186.727003 292.240939 
L 187.840359 292.125071 
L 188.285701 292.428064 
L 189.176386 292.341263 
L 189.399057 292.52512 
L 189.621728 292.502948 
L 189.8444 292.290265 
L 190.957755 292.567011 
L 191.180426 292.392298 
L 191.403098 292.470239 
L 192.516453 292.424389 
L 192.739125 292.737418 
L 192.961796 292.701621 
L 193.85248 292.726134 
L 194.297823 292.603067 
L 194.520494 292.74447 
L 196.969877 292.569212 
L 197.192548 292.553937 
L 197.415219 292.383304 
L 197.63789 292.358899 
L 198.751246 292.466841 
L 198.973917 292.357003 
L 199.196588 292.505316 
L 200.087273 292.545877 
L 200.755286 292.449772 
L 201.868642 292.525554 
L 202.313984 292.344921 
L 203.42734 292.510553 
L 204.986038 292.717301 
L 205.208709 292.902209 
L 206.544736 293.038961 
L 206.990079 292.971637 
L 209.662132 293.07506 
L 210.998159 292.843507 
L 211.666173 292.366439 
L 212.779529 292.28296 
L 213.224871 292.568808 
L 214.783569 292.611082 
L 216.119596 292.782027 
L 216.342267 292.654687 
L 217.455623 292.872032 
L 217.678294 292.614975 
L 217.900965 292.527876 
L 219.014321 292.503507 
L 219.236992 292.725318 
L 219.459663 292.675489 
L 220.127677 292.64905 
L 220.350348 292.475256 
L 220.573019 292.544269 
L 221.018361 292.414224 
L 224.135758 292.400561 
L 225.249113 292.294435 
L 225.694456 292.202628 
L 230.147879 292.317846 
L 230.37055 292.169214 
L 231.929248 292.357249 
L 234.823973 291.629621 
L 235.046644 291.661043 
L 235.937329 291.413984 
L 237.273356 291.500594 
L 237.496027 291.378492 
L 237.941369 291.563251 
L 238.16404 291.518006 
L 238.832054 291.783636 
L 239.277396 291.616482 
L 240.836094 291.622499 
L 241.058765 291.663704 
L 241.281437 291.924289 
L 242.394792 292.121764 
L 242.617464 291.919775 
L 243.730819 292.217673 
L 243.95349 292.121727 
L 244.176162 291.72609 
L 245.957531 291.194758 
L 249.742941 291.161368 
L 250.188283 290.792909 
L 250.410954 290.71914 
L 250.633625 290.828047 
L 251.746981 290.936954 
L 251.969652 291.122735 
L 252.192323 291.141953 
L 253.083008 290.866289 
L 253.305679 291.049744 
L 253.52835 290.959668 
L 253.751021 291.028194 
L 254.419035 291.080999 
L 254.641706 290.943364 
L 255.087048 291.148363 
L 256.645746 290.781262 
L 256.868418 290.921425 
L 257.759102 290.975394 
L 257.981773 290.823002 
L 258.204444 291.128953 
L 258.427116 291.186998 
L 259.763143 290.998299 
L 262.435196 291.030333 
L 262.657868 290.935988 
L 263.10321 290.939479 
L 263.993895 290.896964 
L 264.216566 290.961568 
L 264.661908 290.78521 
L 265.552593 290.73139 
L 265.997935 291.03061 
L 266.88862 290.932706 
L 267.111291 290.970023 
L 267.333962 290.833963 
L 268.89266 290.76173 
L 269.338002 290.696941 
L 271.564714 290.517937 
L 272.455398 290.849536 
L 273.791425 290.750306 
L 274.014097 290.867316 
L 275.127452 290.778692 
L 276.908822 290.340824 
L 278.690191 290.346319 
L 279.803547 290.410667 
L 280.248889 290.363284 
L 280.916902 290.402295 
L 281.139574 290.293412 
L 281.362245 290.318895 
L 281.584916 290.213689 
L 281.807587 290.285418 
L 282.4756 290.169172 
L 282.698272 290.285011 
L 282.920943 290.198105 
L 283.366285 290.470433 
L 284.034299 290.280324 
L 284.702312 290.531231 
L 284.924983 290.355401 
L 289.378406 289.921847 
L 289.601077 289.949928 
L 290.714433 289.853912 
L 290.937104 289.956509 
L 291.159776 289.868644 
L 292.718474 289.990346 
L 294.277172 289.857327 
L 295.83587 290.104579 
L 296.726554 290.080947 
L 297.171897 290.355725 
L 297.394568 290.160028 
L 298.062581 290.142085 
L 298.285253 290.348234 
L 298.507924 290.179479 
L 298.730595 290.47018 
L 298.953266 290.425447 
L 300.289293 290.98477 
L 300.511964 290.738495 
L 301.62532 290.819021 
L 302.070662 290.666756 
L 302.738676 290.686411 
L 302.961347 290.508775 
L 303.184018 290.550351 
L 303.62936 290.352318 
L 304.297374 290.32107 
L 304.520045 290.486665 
L 304.965387 290.328176 
L 305.188058 290.510244 
L 307.860112 290.540372 
L 308.305455 290.633933 
L 309.864153 290.264632 
L 311.20018 290.157568 
L 311.422851 290.121547 
L 312.313535 290.206678 
L 312.536207 290.382878 
L 312.758878 290.246963 
L 312.981549 290.385044 
L 314.094905 290.464084 
L 314.317576 290.229466 
L 316.098945 289.899428 
L 316.98963 289.977153 
L 318.770999 290.25985 
L 319.216341 290.039976 
L 320.552368 290.119926 
L 320.775039 289.987516 
L 321.665724 290.034525 
L 321.888395 290.186664 
L 322.111066 290.025072 
L 322.333737 290.057849 
L 323.001751 290.023582 
L 323.447093 290.344792 
L 323.669764 290.213009 
L 323.892435 290.478078 
L 324.560449 290.356031 
L 324.78312 290.067377 
L 325.005791 289.391451 
L 325.228462 289.238977 
L 325.451134 289.301715 
L 326.564489 289.286987 
L 327.009832 289.017087 
L 328.56853 288.915012 
L 329.681886 288.831475 
L 330.127228 288.995266 
L 331.017912 288.790249 
L 331.685926 289.089329 
L 332.353939 288.902571 
L 332.576611 289.174829 
L 332.799282 289.214601 
L 333.021953 288.770383 
L 333.244624 288.915823 
L 335.471336 288.534738 
L 335.694007 288.676311 
L 335.916678 288.959396 
L 337.030034 288.780198 
L 337.252705 288.94432 
L 339.479416 288.694826 
L 340.370101 288.734484 
L 340.815443 288.576406 
L 341.038114 288.763997 
L 341.706128 288.504269 
L 341.928799 288.595187 
L 342.15147 288.547725 
L 342.374141 288.346346 
L 343.710168 288.18388 
L 343.93284 288.35296 
L 344.155511 288.128625 
L 345.046195 288.111868 
L 345.491538 288.280082 
L 345.714209 288.162618 
L 346.604893 288.290879 
L 348.608934 288.121852 
L 349.72229 288.279645 
L 350.167632 288.140796 
L 350.390303 288.197858 
L 351.503659 288.113801 
L 351.949001 288.249885 
L 352.839686 288.459369 
L 353.285028 288.190739 
L 353.507699 288.292516 
L 354.398384 288.186414 
L 354.621055 288.137524 
L 354.843726 287.945796 
L 355.066397 288.030057 
L 356.625095 287.827788 
L 357.293109 288.068451 
L 357.961122 287.77145 
L 358.851807 287.706497 
L 359.074478 287.56266 
L 359.297149 287.788423 
L 359.742492 287.588788 
L 360.633176 287.416073 
L 361.969203 287.152526 
L 362.191874 287.38288 
L 362.859888 287.489046 
L 363.750572 287.527518 
L 363.973244 287.370208 
L 365.30927 287.257324 
L 365.531942 288.354703 
L 365.754613 288.556131 
L 366.645297 288.305199 
L 366.867969 288.626898 
L 367.313311 288.683259 
L 367.535982 288.705094 
L 368.203996 288.5069 
L 368.649338 288.811913 
L 368.872009 289.473547 
L 369.762694 290.120213 
L 369.985365 290.118592 
L 370.430707 289.344329 
L 370.653378 289.325009 
L 371.321392 289.386153 
L 371.544063 289.725882 
L 371.766734 289.442622 
L 371.989405 289.397735 
L 372.212076 289.560896 
L 373.102761 289.188911 
L 373.325432 289.440643 
L 373.770774 289.139608 
L 374.661459 289.240186 
L 375.106801 289.151714 
L 375.329473 289.35962 
L 375.997486 289.263407 
L 376.665499 289.581136 
L 376.888171 289.592341 
L 377.556184 289.829969 
L 377.778855 289.73903 
L 378.001526 289.413591 
L 378.446869 289.342383 
L 379.337553 289.181282 
L 379.560224 289.192348 
L 380.005567 288.931267 
L 380.896251 288.885471 
L 381.118923 288.962608 
L 381.341594 288.74743 
L 382.232278 288.608815 
L 382.454949 288.745821 
L 382.677621 288.715437 
L 382.900292 288.338871 
L 384.236319 288.297057 
L 384.45899 288.233512 
L 384.681661 288.371553 
L 385.572346 288.157168 
L 385.795017 288.38864 
L 386.017688 288.448562 
L 386.240359 288.191519 
L 387.576386 288.244526 
L 387.799057 288.406321 
L 388.689742 288.236506 
L 388.912413 287.996932 
L 389.357755 287.751383 
L 390.025769 287.816466 
L 390.24844 287.958946 
L 390.471111 287.900012 
L 390.916453 288.240622 
L 391.584467 288.385142 
L 391.807138 288.157327 
L 392.25248 288.55157 
L 392.475152 288.288386 
L 393.143165 288.346894 
L 393.588507 288.640269 
L 393.811178 288.636797 
L 394.03385 288.95258 
L 394.701863 288.794456 
L 395.147205 288.28404 
L 395.369877 288.513029 
L 395.592548 288.977682 
L 396.928575 289.09435 
L 398.04193 288.941709 
L 398.487273 289.18483 
L 398.487273 289.18483 
" style="fill:none;stroke:#000000;stroke-linecap:square;stroke-width:1.5;"/>
   </g>
   <g id="line2d_19">
    <path clip-path="url(#pb11ca5cdd1)" d="M 73.832727 295.363511 
L 74.27807 295.261525 
L 76.950123 295.240752 
L 77.395466 295.059443 
L 78.508822 295.005055 
L 78.954164 294.945462 
L 80.512862 294.861351 
L 80.735533 294.644463 
L 81.848889 294.391757 
L 82.294231 294.340022 
L 83.852929 294.225459 
L 86.079641 294.11619 
L 86.524983 294.057507 
L 86.970325 294.005648 
L 89.197037 293.842615 
L 89.419708 293.499052 
L 91.64642 293.422667 
L 92.759776 293.270026 
L 95.654501 293.219559 
L 96.099843 293.132411 
L 96.990527 293.132411 
L 97.213199 292.901929 
L 98.771897 292.858732 
L 99.217239 292.739478 
L 99.43991 292.681979 
L 100.998608 292.663355 
L 101.889293 292.349168 
L 102.334635 292.12442 
L 102.557306 292.060206 
L 104.116004 292.043915 
L 107.233401 291.654168 
L 108.124085 291.654168 
L 108.346756 291.486617 
L 108.569428 291.462335 
L 108.792099 291.314212 
L 109.460112 291.314212 
L 110.350797 290.965411 
L 112.577508 290.891095 
L 113.022851 290.599101 
L 119.480314 290.542879 
L 119.702985 290.487029 
L 121.039012 290.447637 
L 121.261684 290.253143 
L 122.820382 290.176694 
L 127.051134 289.944259 
L 128.609832 289.900015 
L 128.832503 289.644816 
L 129.945859 289.553403 
L 130.16853 289.517992 
L 130.391201 289.290345 
L 131.504557 289.268975 
L 131.727228 289.063925 
L 133.285926 289.043418 
L 133.508597 288.877216 
L 133.731268 288.877216 
L 135.95798 288.319057 
L 137.739349 288.263073 
L 137.96202 287.969156 
L 139.520718 287.890717 
L 139.966061 287.698375 
L 143.75147 287.335863 
L 143.974141 287.172461 
L 144.642155 287.074318 
L 145.310168 286.914021 
L 145.53284 286.740639 
L 145.755511 286.740639 
L 146.200853 286.478016 
L 147.091538 286.478016 
L 147.314209 286.279709 
L 149.095578 286.180557 
L 149.318249 286.120767 
L 150.876947 286.047696 
L 151.767632 285.840899 
L 151.990303 285.840899 
L 152.212974 285.508669 
L 153.994343 285.508669 
L 154.662357 285.287318 
L 155.107699 284.834245 
L 155.33037 284.834245 
L 155.553042 284.495301 
L 157.779753 284.484621 
L 158.002424 284.306554 
L 159.561122 284.231488 
L 159.783793 283.440581 
L 160.006465 283.440581 
L 160.229136 283.288915 
L 161.565163 283.256555 
L 161.787834 283.001268 
L 162.455847 283.001268 
L 162.90119 282.77622 
L 164.682559 282.700714 
L 164.90523 282.435735 
L 167.131942 282.406149 
L 167.354613 282.240808 
L 167.577284 281.917234 
L 167.799955 281.917234 
L 168.022626 281.638493 
L 168.69064 281.638493 
L 168.913311 281.384679 
L 170.249338 281.287301 
L 171.140022 281.088 
L 172.030707 281.088 
L 172.253378 280.928808 
L 172.476049 280.928808 
L 172.698721 280.748553 
L 173.366734 280.748553 
L 173.589405 280.586034 
L 173.812076 280.586034 
L 174.034747 280.457209 
L 174.925432 280.457209 
L 175.148103 280.156621 
L 176.706801 280.114056 
L 176.929473 279.745356 
L 178.933513 279.745356 
L 179.601526 279.578933 
L 179.824198 279.36443 
L 180.492211 279.342035 
L 181.160224 278.920257 
L 181.382896 278.920257 
L 181.828238 278.528513 
L 182.050909 278.181968 
L 182.718923 278.181968 
L 182.941594 277.804983 
L 183.164265 277.804983 
L 183.386936 277.551171 
L 184.500292 277.506788 
L 185.168305 277.391381 
L 185.836319 277.391381 
L 186.281661 277.264317 
L 186.727003 277.163712 
L 188.06303 276.520513 
L 188.285701 276.520513 
L 188.953715 276.224651 
L 189.176386 275.998645 
L 189.399057 275.998645 
L 189.621728 275.860237 
L 190.957755 275.860237 
L 191.180426 275.303984 
L 191.403098 275.303984 
L 192.071111 275.008633 
L 192.293782 274.666201 
L 193.85248 274.608329 
L 194.075152 274.323424 
L 194.520494 274.323424 
L 195.63385 273.719825 
L 196.079192 273.718387 
L 196.747205 273.316096 
L 196.969877 273.316096 
L 197.415219 273.086802 
L 198.528575 273.086802 
L 198.751246 272.937636 
L 200.532615 272.853557 
L 200.755286 272.656241 
L 201.868642 272.656241 
L 202.091313 272.328017 
L 202.313984 271.79639 
L 203.872682 271.79639 
L 204.763367 271.58909 
L 207.880763 271.509181 
L 208.548777 271.310189 
L 210.775488 271.120451 
L 211.666173 268.518289 
L 213.224871 268.432136 
L 214.560898 268.188839 
L 215.451582 268.188839 
L 215.674254 268.008377 
L 216.119596 267.981839 
L 216.342267 267.289294 
L 217.455623 267.289294 
L 217.678294 266.185353 
L 217.900965 265.835867 
L 218.79165 265.491922 
L 220.127677 265.491922 
L 220.350348 264.730352 
L 220.573019 264.730352 
L 220.79569 264.214437 
L 221.018361 264.097942 
L 221.686375 264.097942 
L 221.909046 263.075069 
L 222.354388 263.006031 
L 222.577059 262.764407 
L 223.913086 262.654456 
L 224.135758 261.807304 
L 225.249113 261.765111 
L 225.471785 261.14309 
L 225.694456 261.14309 
L 226.58514 260.85478 
L 227.030483 260.85478 
L 227.253154 260.699872 
L 227.921167 260.699872 
L 228.143838 259.836932 
L 228.36651 259.836932 
L 228.811852 259.667864 
L 229.925208 259.624961 
L 230.147879 259.465586 
L 231.038563 259.465586 
L 231.261235 259.186776 
L 231.929248 259.186776 
L 232.597262 258.631423 
L 232.819933 258.631423 
L 233.042604 257.675821 
L 233.487946 257.675821 
L 234.15596 257.129752 
L 234.378631 257.129752 
L 234.823973 256.602002 
L 235.046644 256.602002 
L 235.714658 255.441924 
L 235.937329 255.337025 
L 237.273356 255.337025 
L 237.496027 254.39391 
L 237.941369 254.39391 
L 238.16404 254.079659 
L 238.832054 254.079659 
L 239.054725 253.298349 
L 239.277396 253.298349 
L 239.722738 252.685836 
L 240.613423 252.685073 
L 240.836094 251.938576 
L 243.508148 251.938576 
L 243.95349 250.662302 
L 245.066846 250.58681 
L 245.289517 250.095868 
L 245.73486 250.015156 
L 245.957531 249.120697 
L 247.070887 249.120697 
L 247.293558 248.739238 
L 247.516229 248.739238 
L 248.184242 248.335727 
L 248.406914 248.335727 
L 249.074927 247.733949 
L 249.742941 247.733949 
L 249.965612 246.181762 
L 250.188283 245.512605 
L 251.301639 245.512605 
L 251.746981 245.398933 
L 252.192323 245.298955 
L 252.860337 244.35632 
L 253.305679 244.35632 
L 253.52835 243.355175 
L 253.751021 243.355175 
L 254.419035 242.854205 
L 255.087048 242.854205 
L 255.309719 242.659627 
L 255.977733 242.659627 
L 256.200404 242.035322 
L 256.868418 242.020489 
L 257.536431 241.157436 
L 257.759102 241.155911 
L 257.981773 240.46327 
L 258.427116 240.46327 
L 259.095129 239.972667 
L 261.544512 239.917586 
L 262.212525 238.759218 
L 262.435196 238.759218 
L 262.657868 238.314811 
L 263.10321 238.314811 
L 263.771223 237.586091 
L 263.993895 237.586091 
L 264.439237 237.455113 
L 264.661908 237.055334 
L 265.997935 237.052075 
L 266.220606 236.841199 
L 267.333962 236.808755 
L 267.556633 236.680633 
L 267.779304 235.903867 
L 268.89266 235.567542 
L 269.115331 235.223212 
L 269.338002 235.223212 
L 270.228687 235.015002 
L 270.8967 234.291168 
L 272.232727 234.291168 
L 272.455398 233.7897 
L 273.346083 233.787967 
L 273.791425 233.284689 
L 275.350123 233.284689 
L 275.572795 232.770107 
L 276.463479 232.770107 
L 276.68615 232.006663 
L 278.022177 232.006663 
L 278.244848 230.8893 
L 280.916902 230.813632 
L 281.139574 230.420974 
L 281.362245 230.420974 
L 281.584916 229.823687 
L 281.807587 229.823687 
L 282.4756 229.307227 
L 282.698272 229.307227 
L 282.920943 228.449421 
L 283.366285 228.449421 
L 284.25697 228.258058 
L 284.702312 228.258058 
L 284.924983 227.096755 
L 285.815668 227.096755 
L 286.038339 226.760098 
L 286.26101 225.888286 
L 286.483681 225.888286 
L 287.374366 225.194699 
L 287.597037 225.194699 
L 287.819708 224.730451 
L 288.042379 224.635874 
L 288.710393 224.635874 
L 288.933064 223.893061 
L 289.378406 223.891847 
L 289.601077 223.769088 
L 290.491762 223.769088 
L 290.937104 223.647763 
L 291.159776 222.94889 
L 292.05046 222.94889 
L 292.273131 222.299446 
L 292.718474 222.299446 
L 293.831829 221.709133 
L 295.167856 221.700199 
L 295.390527 220.656892 
L 295.613199 220.656892 
L 295.83587 220.034426 
L 296.503883 220.034426 
L 296.726554 219.848616 
L 297.394568 219.848616 
L 298.285253 219.686324 
L 298.507924 218.061353 
L 298.730595 218.061353 
L 298.953266 217.510015 
L 299.621279 217.510015 
L 299.843951 217.277206 
L 300.289293 217.277206 
L 300.511964 216.235429 
L 301.179978 216.22957 
L 301.402649 214.191809 
L 301.62532 214.191809 
L 301.847991 213.97988 
L 302.738676 213.97773 
L 302.961347 212.494989 
L 303.184018 212.494989 
L 303.406689 211.801307 
L 303.62936 211.801307 
L 304.520045 211.47411 
L 304.742716 211.47411 
L 304.965387 210.475722 
L 305.188058 210.475722 
L 305.856072 209.670737 
L 306.301414 209.670737 
L 306.524085 209.061228 
L 308.082783 209.061228 
L 308.305455 208.898796 
L 308.973468 208.89318 
L 309.196139 207.787816 
L 309.864153 206.899381 
L 310.532166 206.703108 
L 310.754837 205.907655 
L 310.977508 205.907655 
L 311.20018 205.783276 
L 311.422851 205.233912 
L 312.536207 205.192438 
L 312.758878 203.828116 
L 313.872233 203.828116 
L 314.094905 202.502767 
L 314.317576 202.502767 
L 314.540247 201.977526 
L 315.20826 201.972927 
L 315.430932 201.44997 
L 316.98963 201.44997 
L 317.212301 201.204471 
L 318.548328 201.204471 
L 318.99367 199.109996 
L 319.216341 199.109996 
L 319.884355 198.87997 
L 320.107026 198.080379 
L 320.329697 198.080379 
L 320.552368 197.947254 
L 321.888395 197.947254 
L 322.111066 196.860071 
L 322.333737 196.860071 
L 323.224422 196.528977 
L 323.447093 196.528977 
L 323.669764 195.899509 
L 323.892435 195.899509 
L 324.560449 194.762122 
L 324.78312 192.217645 
L 325.005791 192.217645 
L 325.228462 190.737534 
L 326.119147 190.737534 
L 326.341818 190.528751 
L 326.564489 190.528751 
L 326.78716 190.302515 
L 327.009832 188.973451 
L 327.900516 188.973451 
L 328.123187 188.10796 
L 328.345859 188.107855 
L 328.56853 187.380297 
L 329.236543 186.89527 
L 329.904557 186.89527 
L 330.127228 186.128167 
L 330.795241 186.121812 
L 331.017912 185.61634 
L 331.685926 185.61634 
L 332.353939 183.993547 
L 332.799282 183.993547 
L 333.021953 183.104491 
L 333.244624 183.104491 
L 333.912637 180.939175 
L 334.135309 180.939175 
L 334.35798 179.790333 
L 334.580651 179.790333 
L 334.803322 178.580918 
L 335.916678 178.580918 
L 337.030034 177.259779 
L 337.475376 177.259779 
L 337.698047 176.260802 
L 338.588732 175.010045 
L 339.034074 174.98647 
L 339.256745 174.495653 
L 339.479416 174.280153 
L 340.370101 174.280153 
L 340.592772 173.895953 
L 340.815443 172.551232 
L 341.038114 172.551232 
L 341.706128 168.123372 
L 342.15147 168.123372 
L 342.596813 166.147358 
L 343.264826 165.364386 
L 343.487497 165.364386 
L 343.710168 164.986799 
L 344.155511 164.986799 
L 344.823524 164.352989 
L 345.268866 164.352989 
L 345.491538 163.589127 
L 345.714209 162.215767 
L 346.382222 162.215767 
L 346.604893 161.388932 
L 346.827565 161.388932 
L 347.272907 159.954898 
L 347.94092 159.916149 
L 348.163591 159.618991 
L 348.386263 159.618991 
L 348.608934 159.372854 
L 349.72229 159.372854 
L 349.944961 158.158291 
L 350.167632 157.949337 
L 350.390303 157.949337 
L 351.058316 157.176739 
L 351.280988 157.176739 
L 351.503659 156.94557 
L 352.839686 156.94557 
L 353.062357 154.960782 
L 353.285028 154.129308 
L 353.507699 154.129308 
L 354.175713 153.819243 
L 354.398384 152.632904 
L 354.621055 152.053227 
L 355.066397 152.053227 
L 355.734411 150.839254 
L 355.957082 149.665272 
L 357.293109 149.665272 
L 357.51578 148.192008 
L 357.738451 145.948883 
L 357.961122 145.948883 
L 358.851807 144.956465 
L 359.074478 143.053206 
L 359.297149 143.053206 
L 359.51982 142.379417 
L 359.742492 142.379417 
L 360.410505 140.047149 
L 360.633176 140.047149 
L 360.855847 139.427427 
L 361.078519 138.367053 
L 361.30119 138.367053 
L 361.969203 137.372982 
L 363.527901 137.3453 
L 363.750572 136.329349 
L 363.973244 136.329349 
L 364.195915 136.066349 
L 364.418586 136.066349 
L 365.531942 133.7211 
L 365.977284 133.7211 
L 366.645297 131.175019 
L 366.867969 131.175019 
L 367.09064 130.460501 
L 367.313311 130.458629 
L 367.535982 129.706535 
L 368.203996 129.085322 
L 369.762694 129.085322 
L 369.985365 128.121517 
L 370.208036 128.121517 
L 370.430707 122.951576 
L 370.653378 122.406448 
L 371.544063 122.406448 
L 371.766734 119.417622 
L 372.212076 119.417622 
L 373.102761 114.918326 
L 373.325432 114.918326 
L 373.548103 113.648967 
L 373.770774 110.190293 
L 374.438788 110.190293 
L 374.661459 107.711618 
L 374.88413 107.709747 
L 375.106801 107.260618 
L 375.329473 107.260618 
L 375.997486 106.177757 
L 376.442828 106.177757 
L 376.888171 103.774314 
L 377.556184 103.774314 
L 377.778855 101.899198 
L 378.001526 101.899198 
L 378.446869 100.328553 
L 379.114882 98.659761 
L 379.560224 98.659761 
L 379.782896 96.255917 
L 380.67358 96.255917 
L 380.896251 95.790655 
L 381.118923 95.790655 
L 381.341594 91.565213 
L 382.232278 88.47436 
L 382.677621 87.2615 
L 382.900292 87.2615 
L 383.122963 86.380155 
L 383.790976 86.380155 
L 384.013648 85.904347 
L 384.236319 84.819488 
L 384.681661 84.819488 
L 385.572346 81.374531 
L 386.240359 81.374531 
L 386.908373 79.941788 
L 387.131044 78.031456 
L 387.799057 78.031456 
L 388.689742 75.512482 
L 389.135084 75.512482 
L 389.357755 72.914435 
L 390.025769 72.914435 
L 390.24844 72.682361 
L 390.471111 72.682361 
L 390.916453 71.916796 
L 391.584467 70.319013 
L 392.25248 70.319013 
L 392.475152 67.795575 
L 394.03385 67.795575 
L 394.701863 65.425616 
L 394.924534 62.184296 
L 396.260561 62.184296 
L 396.483232 57.875289 
L 396.705903 56.793611 
L 396.928575 56.793611 
L 397.819259 53.568 
L 398.487273 53.568 
L 398.487273 53.568 
" style="fill:none;stroke:#ff0000;stroke-linecap:square;stroke-width:1.5;"/>
   </g>
   <g id="line2d_20">
    <path clip-path="url(#pb11ca5cdd1)" d="M 73.832727 295.363511 
L 76.950123 295.34284 
L 77.395466 295.16153 
L 80.06752 295.102982 
L 80.735533 294.94172 
L 83.407587 294.858836 
L 83.852929 294.76609 
L 87.86101 294.657247 
L 90.087722 294.533836 
L 91.64642 294.52844 
L 92.759776 294.393033 
L 95.877172 294.339252 
L 96.322514 294.228248 
L 99.217239 294.165187 
L 99.43991 294.115354 
L 101.889293 294.064717 
L 102.334635 293.876325 
L 102.557306 293.822498 
L 108.124085 293.822498 
L 108.569428 293.667967 
L 108.792099 293.548645 
L 110.128126 293.452883 
L 110.350797 293.265117 
L 112.577508 293.250564 
L 113.245522 293.017758 
L 117.476274 292.972999 
L 117.698945 292.742671 
L 121.039012 292.710294 
L 121.261684 292.550436 
L 123.933737 292.491851 
L 124.37908 292.369154 
L 128.609832 292.260481 
L 128.832503 292.056322 
L 130.16853 292.027993 
L 130.391201 291.845875 
L 133.285926 291.829685 
L 133.508597 291.698019 
L 133.731268 291.698019 
L 134.844624 291.512466 
L 139.743389 291.392693 
L 139.966061 291.298221 
L 143.75147 291.028301 
L 144.196813 290.90446 
L 144.642155 290.8306 
L 146.200853 290.579481 
L 150.876947 290.49205 
L 152.435645 290.243944 
L 153.994343 290.243944 
L 154.662357 290.083958 
L 155.107699 289.756489 
L 157.779753 289.75142 
L 158.225095 289.624718 
L 159.561122 289.57036 
L 159.783793 288.997635 
L 161.565163 288.974829 
L 161.787834 288.794912 
L 162.678519 288.696086 
L 163.123861 288.637803 
L 164.682559 288.584589 
L 164.90523 288.399604 
L 166.241257 288.399604 
L 166.463928 288.207131 
L 167.354613 288.207131 
L 167.577284 287.984673 
L 167.799955 287.984673 
L 168.022626 287.833029 
L 168.913311 287.569111 
L 169.135982 287.434233 
L 170.69468 287.401458 
L 171.140022 287.293353 
L 174.925432 287.204079 
L 175.148103 286.995778 
L 179.601526 286.96602 
L 179.824198 286.821032 
L 180.492211 286.805828 
L 182.050909 286.022816 
L 183.164265 285.955457 
L 183.386936 285.785472 
L 184.945634 285.785472 
L 185.168305 285.486906 
L 186.727003 285.486906 
L 187.840359 285.174604 
L 188.953715 285.174604 
L 189.176386 285.025817 
L 189.621728 285.025817 
L 189.8444 284.551512 
L 190.957755 284.551512 
L 191.180426 284.179181 
L 193.629809 284.101534 
L 193.85248 283.963955 
L 194.520494 283.963955 
L 196.079192 283.406547 
L 198.751246 283.33135 
L 198.973917 282.991732 
L 203.872682 282.896536 
L 204.986038 282.766465 
L 208.103434 282.711505 
L 208.548777 282.623668 
L 215.451582 282.569952 
L 215.896925 282.449759 
L 216.119596 282.449759 
L 216.342267 282.046505 
L 217.678294 282.046505 
L 217.900965 281.850188 
L 218.79165 281.656985 
L 220.573019 281.656985 
L 220.79569 281.416585 
L 221.686375 281.357368 
L 221.909046 280.792497 
L 222.354388 280.792497 
L 222.577059 280.66018 
L 225.249113 280.589783 
L 225.471785 280.255403 
L 227.921167 280.255403 
L 228.143838 279.796812 
L 229.702536 279.707708 
L 231.929248 279.452285 
L 232.819933 279.156097 
L 233.042604 279.156097 
L 233.265275 278.960454 
L 233.487946 278.960454 
L 234.378631 278.673691 
L 235.046644 278.673691 
L 235.937329 278.019883 
L 238.832054 278.019883 
L 239.054725 277.627183 
L 239.500067 277.627183 
L 239.722738 277.451716 
L 243.730819 277.451716 
L 243.95349 277.200664 
L 245.73486 277.124573 
L 245.957531 276.691175 
L 248.406914 276.691175 
L 249.074927 276.406215 
L 249.965612 276.406215 
L 250.188283 276.096856 
L 252.192323 276.044183 
L 252.860337 275.609473 
L 255.977733 275.609473 
L 256.200404 275.329836 
L 257.536431 275.323182 
L 257.759102 275.172178 
L 257.981773 274.863298 
L 258.427116 274.863298 
L 259.3178 274.643372 
L 261.544512 274.618865 
L 262.212525 274.10782 
L 262.435196 274.10782 
L 262.657868 273.909817 
L 263.10321 273.909817 
L 263.993895 273.58489 
L 264.216566 273.58489 
L 264.439237 273.112595 
L 264.661908 273.112595 
L 265.775264 272.944772 
L 267.556633 272.872532 
L 267.779304 272.522819 
L 270.451358 272.099858 
L 270.674029 271.860669 
L 272.232727 271.860669 
L 272.455398 271.633919 
L 273.346083 271.633919 
L 273.791425 271.407655 
L 275.572795 271.407655 
L 276.68615 271.247496 
L 280.916902 271.22472 
L 281.139574 270.697529 
L 281.807587 270.697529 
L 282.698272 270.472982 
L 282.920943 270.098348 
L 285.815668 270.015424 
L 286.038339 269.870756 
L 286.26101 269.496122 
L 286.483681 269.496122 
L 287.374366 269.195661 
L 288.042379 269.195661 
L 288.710393 269.065538 
L 288.933064 268.748045 
L 290.937104 268.639665 
L 291.159776 268.340148 
L 292.273131 268.340148 
L 292.495802 268.168551 
L 295.167856 268.06941 
L 295.83587 267.682717 
L 298.285253 267.682717 
L 298.507924 267.001663 
L 300.289293 267.001663 
L 300.511964 266.56759 
L 301.179978 266.56759 
L 301.402649 265.720273 
L 302.738676 265.630033 
L 302.961347 265.014361 
L 303.184018 265.014361 
L 303.406689 264.724929 
L 303.62936 264.724929 
L 305.188058 264.415613 
L 306.301414 264.415613 
L 306.524085 264.166082 
L 308.305455 264.166082 
L 308.973468 263.469712 
L 309.196139 263.009761 
L 309.864153 262.640077 
L 310.532166 262.558406 
L 310.754837 262.227413 
L 311.20018 262.227413 
L 311.422851 261.997746 
L 313.872233 261.980407 
L 314.094905 261.436674 
L 314.540247 261.436674 
L 315.20826 260.683414 
L 318.99367 260.580153 
L 319.216341 260.398215 
L 321.888395 260.398215 
L 322.111066 259.484582 
L 322.333737 259.484582 
L 323.447093 259.35053 
L 323.669764 259.093722 
L 324.560449 259.093722 
L 324.78312 258.072884 
L 326.78716 258.072884 
L 327.009832 257.548747 
L 328.345859 257.548747 
L 328.56853 257.263748 
L 329.459214 257.073753 
L 329.904557 257.073753 
L 330.127228 256.771884 
L 331.685926 256.771884 
L 332.353939 256.139955 
L 333.244624 256.139955 
L 333.912637 255.303567 
L 334.135309 255.303567 
L 334.35798 254.452222 
L 334.580651 254.452222 
L 334.803322 253.535173 
L 335.471336 253.012418 
L 335.916678 253.012418 
L 337.030034 252.485535 
L 337.698047 252.485535 
L 338.811403 251.980104 
L 339.034074 251.980104 
L 339.479416 251.700477 
L 340.370101 251.700477 
L 340.592772 251.129532 
L 346.382222 251.129532 
L 346.604893 250.826209 
L 346.827565 250.826209 
L 347.272907 250.300137 
L 348.386263 250.17691 
L 348.831605 250.08686 
L 349.72229 250.08686 
L 349.944961 249.642827 
L 350.390303 249.566434 
L 351.72633 249.317616 
L 352.839686 249.317616 
L 353.062357 248.595403 
L 353.285028 248.292851 
L 353.507699 248.292851 
L 354.175713 248.179806 
L 354.621055 247.535946 
L 357.51578 247.535946 
L 357.738451 246.917847 
L 358.851807 246.917847 
L 359.074478 246.245526 
L 359.297149 246.245526 
L 359.51982 246.007854 
L 359.742492 244.940066 
L 360.410505 244.10305 
L 360.633176 244.10305 
L 360.855847 243.880586 
L 361.078519 243.499938 
L 361.30119 243.499938 
L 362.191874 243.257747 
L 363.750572 243.247861 
L 363.973244 242.865294 
L 365.086599 242.865294 
L 365.30927 242.585529 
L 365.977284 242.585529 
L 366.645297 241.682457 
L 366.867969 241.682457 
L 367.09064 241.428211 
L 367.313311 241.428211 
L 367.535982 241.159934 
L 368.426667 240.939016 
L 369.762694 240.939016 
L 369.985365 240.596538 
L 370.208036 240.596538 
L 370.430707 239.821 
L 373.325432 239.75956 
L 373.548103 239.335628 
L 373.770774 238.180524 
L 374.661459 238.180524 
L 374.88413 237.797743 
L 376.665499 237.797743 
L 376.888171 237.344801 
L 377.778855 237.344801 
L 378.001526 236.20678 
L 378.224198 236.20512 
L 378.446869 235.749952 
L 379.114882 233.701686 
L 379.560224 233.701686 
L 379.782896 232.697387 
L 380.67358 232.697387 
L 380.896251 232.539757 
L 381.341594 232.50253 
L 381.564265 232.36294 
L 382.232278 232.36294 
L 382.677621 231.96668 
L 383.122963 231.96668 
L 384.013648 231.544078 
L 384.236319 231.189838 
L 384.681661 231.189838 
L 385.572346 230.064824 
L 386.240359 230.064824 
L 386.908373 229.596071 
L 387.131044 228.971064 
L 387.799057 228.971064 
L 388.689742 228.14659 
L 389.135084 228.14659 
L 389.357755 227.296582 
L 390.471111 227.220813 
L 390.916453 226.970321 
L 391.584467 226.447529 
L 391.807138 225.43463 
L 394.03385 225.43463 
L 394.701863 224.656988 
L 395.147205 222.735743 
L 396.483232 222.735743 
L 396.705903 222.382796 
L 396.928575 222.382796 
L 397.819259 221.330644 
L 398.487273 221.330644 
L 398.487273 221.330644 
" style="fill:none;stroke:#008000;stroke-linecap:square;stroke-width:1.5;"/>
   </g>
   <g id="patch_3">
    <path d="M 57.6 307.584 
L 57.6 41.472 
" style="fill:none;stroke:#000000;stroke-linecap:square;stroke-linejoin:miter;stroke-width:0.8;"/>
   </g>
   <g id="patch_4">
    <path d="M 414.72 307.584 
L 414.72 41.472 
" style="fill:none;stroke:#000000;stroke-linecap:square;stroke-linejoin:miter;stroke-width:0.8;"/>
   </g>
   <g id="patch_5">
    <path d="M 57.6 307.584 
L 414.72 307.584 
" style="fill:none;stroke:#000000;stroke-linecap:square;stroke-linejoin:miter;stroke-width:0.8;"/>
   </g>
   <g id="patch_6">
    <path d="M 57.6 41.472 
L 414.72 41.472 
" style="fill:none;stroke:#000000;stroke-linecap:square;stroke-linejoin:miter;stroke-width:0.8;"/>
   </g>
   <g id="legend_1">
    <g id="patch_7">
     <path d="M 64.6 94.062625 
L 151.185937 94.062625 
Q 153.185937 94.062625 153.185937 92.062625 
L 153.185937 48.472 
Q 153.185937 46.472 151.185937 46.472 
L 64.6 46.472 
Q 62.6 46.472 62.6 48.472 
L 62.6 92.062625 
Q 62.6 94.062625 64.6 94.062625 
z
" style="fill:#ffffff;opacity:0.8;stroke:#cccccc;stroke-linejoin:miter;"/>
    </g>
    <g id="line2d_21">
     <path d="M 66.6 54.570437 
L 86.6 54.570437 
" style="fill:none;stroke:#000000;stroke-linecap:square;stroke-width:1.5;"/>
    </g>
    <g id="line2d_22"/>
    <g id="text_18">
     <!-- bah_trader -->
     <defs>
      <path d="M 48.6875 27.296875 
Q 48.6875 37.203125 44.609375 42.84375 
Q 40.53125 48.484375 33.40625 48.484375 
Q 26.265625 48.484375 22.1875 42.84375 
Q 18.109375 37.203125 18.109375 27.296875 
Q 18.109375 17.390625 22.1875 11.75 
Q 26.265625 6.109375 33.40625 6.109375 
Q 40.53125 6.109375 44.609375 11.75 
Q 48.6875 17.390625 48.6875 27.296875 
z
M 18.109375 46.390625 
Q 20.953125 51.265625 25.265625 53.625 
Q 29.59375 56 35.59375 56 
Q 45.5625 56 51.78125 48.09375 
Q 58.015625 40.1875 58.015625 27.296875 
Q 58.015625 14.40625 51.78125 6.484375 
Q 45.5625 -1.421875 35.59375 -1.421875 
Q 29.59375 -1.421875 25.265625 0.953125 
Q 20.953125 3.328125 18.109375 8.203125 
L 18.109375 0 
L 9.078125 0 
L 9.078125 75.984375 
L 18.109375 75.984375 
z
" id="DejaVuSans-98"/>
      <path d="M 34.28125 27.484375 
Q 23.390625 27.484375 19.1875 25 
Q 14.984375 22.515625 14.984375 16.5 
Q 14.984375 11.71875 18.140625 8.90625 
Q 21.296875 6.109375 26.703125 6.109375 
Q 34.1875 6.109375 38.703125 11.40625 
Q 43.21875 16.703125 43.21875 25.484375 
L 43.21875 27.484375 
z
M 52.203125 31.203125 
L 52.203125 0 
L 43.21875 0 
L 43.21875 8.296875 
Q 40.140625 3.328125 35.546875 0.953125 
Q 30.953125 -1.421875 24.3125 -1.421875 
Q 15.921875 -1.421875 10.953125 3.296875 
Q 6 8.015625 6 15.921875 
Q 6 25.140625 12.171875 29.828125 
Q 18.359375 34.515625 30.609375 34.515625 
L 43.21875 34.515625 
L 43.21875 35.40625 
Q 43.21875 41.609375 39.140625 45 
Q 35.0625 48.390625 27.6875 48.390625 
Q 23 48.390625 18.546875 47.265625 
Q 14.109375 46.140625 10.015625 43.890625 
L 10.015625 52.203125 
Q 14.9375 54.109375 19.578125 55.046875 
Q 24.21875 56 28.609375 56 
Q 40.484375 56 46.34375 49.84375 
Q 52.203125 43.703125 52.203125 31.203125 
z
" id="DejaVuSans-97"/>
      <path d="M 54.890625 33.015625 
L 54.890625 0 
L 45.90625 0 
L 45.90625 32.71875 
Q 45.90625 40.484375 42.875 44.328125 
Q 39.84375 48.1875 33.796875 48.1875 
Q 26.515625 48.1875 22.3125 43.546875 
Q 18.109375 38.921875 18.109375 30.90625 
L 18.109375 0 
L 9.078125 0 
L 9.078125 75.984375 
L 18.109375 75.984375 
L 18.109375 46.1875 
Q 21.34375 51.125 25.703125 53.5625 
Q 30.078125 56 35.796875 56 
Q 45.21875 56 50.046875 50.171875 
Q 54.890625 44.34375 54.890625 33.015625 
z
" id="DejaVuSans-104"/>
      <path d="M 50.984375 -16.609375 
L 50.984375 -23.578125 
L -0.984375 -23.578125 
L -0.984375 -16.609375 
z
" id="DejaVuSans-95"/>
      <path d="M 18.3125 70.21875 
L 18.3125 54.6875 
L 36.8125 54.6875 
L 36.8125 47.703125 
L 18.3125 47.703125 
L 18.3125 18.015625 
Q 18.3125 11.328125 20.140625 9.421875 
Q 21.96875 7.515625 27.59375 7.515625 
L 36.8125 7.515625 
L 36.8125 0 
L 27.59375 0 
Q 17.1875 0 13.234375 3.875 
Q 9.28125 7.765625 9.28125 18.015625 
L 9.28125 47.703125 
L 2.6875 47.703125 
L 2.6875 54.6875 
L 9.28125 54.6875 
L 9.28125 70.21875 
z
" id="DejaVuSans-116"/>
      <path d="M 41.109375 46.296875 
Q 39.59375 47.171875 37.8125 47.578125 
Q 36.03125 48 33.890625 48 
Q 26.265625 48 22.1875 43.046875 
Q 18.109375 38.09375 18.109375 28.8125 
L 18.109375 0 
L 9.078125 0 
L 9.078125 54.6875 
L 18.109375 54.6875 
L 18.109375 46.1875 
Q 20.953125 51.171875 25.484375 53.578125 
Q 30.03125 56 36.53125 56 
Q 37.453125 56 38.578125 55.875 
Q 39.703125 55.765625 41.0625 55.515625 
z
" id="DejaVuSans-114"/>
      <path d="M 45.40625 46.390625 
L 45.40625 75.984375 
L 54.390625 75.984375 
L 54.390625 0 
L 45.40625 0 
L 45.40625 8.203125 
Q 42.578125 3.328125 38.25 0.953125 
Q 33.9375 -1.421875 27.875 -1.421875 
Q 17.96875 -1.421875 11.734375 6.484375 
Q 5.515625 14.40625 5.515625 27.296875 
Q 5.515625 40.1875 11.734375 48.09375 
Q 17.96875 56 27.875 56 
Q 33.9375 56 38.25 53.625 
Q 42.578125 51.265625 45.40625 46.390625 
z
M 14.796875 27.296875 
Q 14.796875 17.390625 18.875 11.75 
Q 22.953125 6.109375 30.078125 6.109375 
Q 37.203125 6.109375 41.296875 11.75 
Q 45.40625 17.390625 45.40625 27.296875 
Q 45.40625 37.203125 41.296875 42.84375 
Q 37.203125 48.484375 30.078125 48.484375 
Q 22.953125 48.484375 18.875 42.84375 
Q 14.796875 37.203125 14.796875 27.296875 
z
" id="DejaVuSans-100"/>
      <path d="M 56.203125 29.59375 
L 56.203125 25.203125 
L 14.890625 25.203125 
Q 15.484375 15.921875 20.484375 11.0625 
Q 25.484375 6.203125 34.421875 6.203125 
Q 39.59375 6.203125 44.453125 7.46875 
Q 49.3125 8.734375 54.109375 11.28125 
L 54.109375 2.78125 
Q 49.265625 0.734375 44.1875 -0.34375 
Q 39.109375 -1.421875 33.890625 -1.421875 
Q 20.796875 -1.421875 13.15625 6.1875 
Q 5.515625 13.8125 5.515625 26.8125 
Q 5.515625 40.234375 12.765625 48.109375 
Q 20.015625 56 32.328125 56 
Q 43.359375 56 49.78125 48.890625 
Q 56.203125 41.796875 56.203125 29.59375 
z
M 47.21875 32.234375 
Q 47.125 39.59375 43.09375 43.984375 
Q 39.0625 48.390625 32.421875 48.390625 
Q 24.90625 48.390625 20.390625 44.140625 
Q 15.875 39.890625 15.1875 32.171875 
z
" id="DejaVuSans-101"/>
     </defs>
     <g transform="translate(94.6 58.070437)scale(0.1 -0.1)">
      <use xlink:href="#DejaVuSans-98"/>
      <use x="63.476562" xlink:href="#DejaVuSans-97"/>
      <use x="124.755859" xlink:href="#DejaVuSans-104"/>
      <use x="188.134766" xlink:href="#DejaVuSans-95"/>
      <use x="238.134766" xlink:href="#DejaVuSans-116"/>
      <use x="277.34375" xlink:href="#DejaVuSans-114"/>
      <use x="318.457031" xlink:href="#DejaVuSans-97"/>
      <use x="379.736328" xlink:href="#DejaVuSans-100"/>
      <use x="443.212891" xlink:href="#DejaVuSans-101"/>
      <use x="504.736328" xlink:href="#DejaVuSans-114"/>
     </g>
    </g>
    <g id="line2d_23">
     <path d="M 66.6 69.526687 
L 86.6 69.526687 
" style="fill:none;stroke:#ff0000;stroke-linecap:square;stroke-width:1.5;"/>
    </g>
    <g id="line2d_24"/>
    <g id="text_19">
     <!-- dql_trader -->
     <defs>
      <path d="M 14.796875 27.296875 
Q 14.796875 17.390625 18.875 11.75 
Q 22.953125 6.109375 30.078125 6.109375 
Q 37.203125 6.109375 41.296875 11.75 
Q 45.40625 17.390625 45.40625 27.296875 
Q 45.40625 37.203125 41.296875 42.84375 
Q 37.203125 48.484375 30.078125 48.484375 
Q 22.953125 48.484375 18.875 42.84375 
Q 14.796875 37.203125 14.796875 27.296875 
z
M 45.40625 8.203125 
Q 42.578125 3.328125 38.25 0.953125 
Q 33.9375 -1.421875 27.875 -1.421875 
Q 17.96875 -1.421875 11.734375 6.484375 
Q 5.515625 14.40625 5.515625 27.296875 
Q 5.515625 40.1875 11.734375 48.09375 
Q 17.96875 56 27.875 56 
Q 33.9375 56 38.25 53.625 
Q 42.578125 51.265625 45.40625 46.390625 
L 45.40625 54.6875 
L 54.390625 54.6875 
L 54.390625 -20.796875 
L 45.40625 -20.796875 
z
" id="DejaVuSans-113"/>
      <path d="M 9.421875 75.984375 
L 18.40625 75.984375 
L 18.40625 0 
L 9.421875 0 
z
" id="DejaVuSans-108"/>
     </defs>
     <g transform="translate(94.6 73.026687)scale(0.1 -0.1)">
      <use xlink:href="#DejaVuSans-100"/>
      <use x="63.476562" xlink:href="#DejaVuSans-113"/>
      <use x="126.953125" xlink:href="#DejaVuSans-108"/>
      <use x="154.736328" xlink:href="#DejaVuSans-95"/>
      <use x="204.736328" xlink:href="#DejaVuSans-116"/>
      <use x="243.945312" xlink:href="#DejaVuSans-114"/>
      <use x="285.058594" xlink:href="#DejaVuSans-97"/>
      <use x="346.337891" xlink:href="#DejaVuSans-100"/>
      <use x="409.814453" xlink:href="#DejaVuSans-101"/>
      <use x="471.337891" xlink:href="#DejaVuSans-114"/>
     </g>
    </g>
    <g id="line2d_25">
     <path d="M 66.6 84.482937 
L 86.6 84.482937 
" style="fill:none;stroke:#008000;stroke-linecap:square;stroke-width:1.5;"/>
    </g>
    <g id="line2d_26"/>
    <g id="text_20">
     <!-- tt obscure -->
     <defs>
      <path id="DejaVuSans-32"/>
      <path d="M 30.609375 48.390625 
Q 23.390625 48.390625 19.1875 42.75 
Q 14.984375 37.109375 14.984375 27.296875 
Q 14.984375 17.484375 19.15625 11.84375 
Q 23.34375 6.203125 30.609375 6.203125 
Q 37.796875 6.203125 41.984375 11.859375 
Q 46.1875 17.53125 46.1875 27.296875 
Q 46.1875 37.015625 41.984375 42.703125 
Q 37.796875 48.390625 30.609375 48.390625 
z
M 30.609375 56 
Q 42.328125 56 49.015625 48.375 
Q 55.71875 40.765625 55.71875 27.296875 
Q 55.71875 13.875 49.015625 6.21875 
Q 42.328125 -1.421875 30.609375 -1.421875 
Q 18.84375 -1.421875 12.171875 6.21875 
Q 5.515625 13.875 5.515625 27.296875 
Q 5.515625 40.765625 12.171875 48.375 
Q 18.84375 56 30.609375 56 
z
" id="DejaVuSans-111"/>
      <path d="M 44.28125 53.078125 
L 44.28125 44.578125 
Q 40.484375 46.53125 36.375 47.5 
Q 32.28125 48.484375 27.875 48.484375 
Q 21.1875 48.484375 17.84375 46.4375 
Q 14.5 44.390625 14.5 40.28125 
Q 14.5 37.15625 16.890625 35.375 
Q 19.28125 33.59375 26.515625 31.984375 
L 29.59375 31.296875 
Q 39.15625 29.25 43.1875 25.515625 
Q 47.21875 21.78125 47.21875 15.09375 
Q 47.21875 7.46875 41.1875 3.015625 
Q 35.15625 -1.421875 24.609375 -1.421875 
Q 20.21875 -1.421875 15.453125 -0.5625 
Q 10.6875 0.296875 5.421875 2 
L 5.421875 11.28125 
Q 10.40625 8.6875 15.234375 7.390625 
Q 20.0625 6.109375 24.8125 6.109375 
Q 31.15625 6.109375 34.5625 8.28125 
Q 37.984375 10.453125 37.984375 14.40625 
Q 37.984375 18.0625 35.515625 20.015625 
Q 33.0625 21.96875 24.703125 23.78125 
L 21.578125 24.515625 
Q 13.234375 26.265625 9.515625 29.90625 
Q 5.8125 33.546875 5.8125 39.890625 
Q 5.8125 47.609375 11.28125 51.796875 
Q 16.75 56 26.8125 56 
Q 31.78125 56 36.171875 55.265625 
Q 40.578125 54.546875 44.28125 53.078125 
z
" id="DejaVuSans-115"/>
      <path d="M 48.78125 52.59375 
L 48.78125 44.1875 
Q 44.96875 46.296875 41.140625 47.34375 
Q 37.3125 48.390625 33.40625 48.390625 
Q 24.65625 48.390625 19.8125 42.84375 
Q 14.984375 37.3125 14.984375 27.296875 
Q 14.984375 17.28125 19.8125 11.734375 
Q 24.65625 6.203125 33.40625 6.203125 
Q 37.3125 6.203125 41.140625 7.25 
Q 44.96875 8.296875 48.78125 10.40625 
L 48.78125 2.09375 
Q 45.015625 0.34375 40.984375 -0.53125 
Q 36.96875 -1.421875 32.421875 -1.421875 
Q 20.0625 -1.421875 12.78125 6.34375 
Q 5.515625 14.109375 5.515625 27.296875 
Q 5.515625 40.671875 12.859375 48.328125 
Q 20.21875 56 33.015625 56 
Q 37.15625 56 41.109375 55.140625 
Q 45.0625 54.296875 48.78125 52.59375 
z
" id="DejaVuSans-99"/>
      <path d="M 8.5 21.578125 
L 8.5 54.6875 
L 17.484375 54.6875 
L 17.484375 21.921875 
Q 17.484375 14.15625 20.5 10.265625 
Q 23.53125 6.390625 29.59375 6.390625 
Q 36.859375 6.390625 41.078125 11.03125 
Q 45.3125 15.671875 45.3125 23.6875 
L 45.3125 54.6875 
L 54.296875 54.6875 
L 54.296875 0 
L 45.3125 0 
L 45.3125 8.40625 
Q 42.046875 3.421875 37.71875 1 
Q 33.40625 -1.421875 27.6875 -1.421875 
Q 18.265625 -1.421875 13.375 4.4375 
Q 8.5 10.296875 8.5 21.578125 
z
M 31.109375 56 
z
" id="DejaVuSans-117"/>
     </defs>
     <g transform="translate(94.6 87.982937)scale(0.1 -0.1)">
      <use xlink:href="#DejaVuSans-116"/>
      <use x="39.208984" xlink:href="#DejaVuSans-116"/>
      <use x="78.417969" xlink:href="#DejaVuSans-32"/>
      <use x="110.205078" xlink:href="#DejaVuSans-111"/>
      <use x="171.386719" xlink:href="#DejaVuSans-98"/>
      <use x="234.863281" xlink:href="#DejaVuSans-115"/>
      <use x="286.962891" xlink:href="#DejaVuSans-99"/>
      <use x="341.943359" xlink:href="#DejaVuSans-117"/>
      <use x="405.322266" xlink:href="#DejaVuSans-114"/>
      <use x="446.404297" xlink:href="#DejaVuSans-101"/>
     </g>
    </g>
   </g>
  </g>
 </g>
 <defs>
  <clipPath id="pb11ca5cdd1">
   <rect height="266.112" width="357.12" x="57.6" y="41.472"/>
  </clipPath>
 </defs>
</svg>
